<?xml version="1.0" encoding="UTF-8"?>
<!DOCTYPE svg PUBLIC "-//W3C//DTD SVG 1.1//EN" "http://www.w3.org/Graphics/SVG/1.1/DTD/svg11.dtd">
<!-- Creator: CorelDRAW -->
<svg xmlns="http://www.w3.org/2000/svg" xml:space="preserve" width="210mm" height="297mm" version="1.1" style="shape-rendering:geometricPrecision; text-rendering:geometricPrecision; image-rendering:optimizeQuality; fill-rule:evenodd; clip-rule:evenodd"
viewBox="0 0 21000 29700"
 xmlns:xlink="http://www.w3.org/1999/xlink"
 xmlns:xodm="http://www.corel.com/coreldraw/odm/2003">
 <defs>
  <style type="text/css">
   <![CDATA[
    .str0 {stroke:#00336A;stroke-width:21.17;stroke-miterlimit:22.9256}
    .fil0 {fill:white;fill-rule:nonzero}
   ]]>
  </style>
 </defs>
 <g id="Camada_x0020_1">
  <metadata id="CorelCorpID_0Corel-Layer"/>
  <path class="fil0 str0" d="M1792.91 1963.67l8.19 -4.72 -2.18 -9.21c-6.25,-26.28 -6.25,-53.65 0,-79.94l2.18 -9.19 -8.19 -4.73 -41.46 -23.95 40.19 -69.59 41.46 23.94 8.19 4.74 6.88 -6.51c19.61,-18.58 43.3,-32.27 69.19,-39.99l9.06 -2.7 0 -9.46 0 -47.85 80.37 0 0 47.85 0 9.46 9.08 2.7c26.17,7.78 49.81,21.65 69.17,39.99l6.87 6.51 8.2 -4.74 41.46 -23.94 40.18 69.59 -41.46 23.95 -8.18 4.73 2.18 9.19c6.24,26.26 6.24,53.62 0,79.89l-2.18 9.2 8.18 4.72 41.46 23.96 -40.18 69.59 -41.46 -23.94 -8.2 -4.74 -6.87 6.51c-19.6,18.57 -43.31,32.27 -69.2,39.99l-9.05 2.7 0 9.46 0 47.85 -80.37 0 0 -47.85 0 -9.46 -9.06 -2.7c-25.89,-7.72 -49.58,-21.42 -69.19,-39.99l-6.88 -6.51 -8.19 4.74 -41.46 23.94 -40.18 -69.59 41.45 -23.9zm-553.64 144.88c3.21,-104.22 46.03,-203.48 119.97,-277.44 73.95,-73.94 173.22,-116.75 277.44,-119.97l0 80.42c-82.9,3.18 -161.73,37.51 -220.6,96.38 -58.89,58.89 -93.22,137.72 -96.39,220.61l-80.42 0zm410.1 -475.86c-168.27,0 -304.55,-136.28 -304.55,-304.55 0,-168.26 136.28,-304.55 304.55,-304.55 168.27,0 304.55,136.29 304.55,304.55 0,168.27 -136.28,304.55 -304.55,304.55zm0 -80.36c123.85,0 224.18,-100.33 224.18,-224.19 0,-123.86 -100.33,-224.18 -224.18,-224.18 -123.86,0 -224.18,100.32 -224.18,224.18 0,123.86 100.32,224.19 224.18,224.19zm317.23 449.41c24.4,0 47.81,-9.69 65.06,-26.94 17.25,-17.25 26.94,-40.66 26.94,-65.06 0,-24.4 -9.69,-47.79 -26.94,-65.04 -17.25,-17.26 -40.66,-26.96 -65.06,-26.96 -24.4,0 -47.79,9.7 -65.05,26.96 -17.25,17.25 -26.95,40.64 -26.95,65.04 0,24.4 9.7,47.81 26.95,65.06 17.26,17.25 40.65,26.94 65.05,26.94z"/>
 </g>
</svg>
