<svg width="56" height="56" viewBox="0 0 56 56" fill="none" xmlns="http://www.w3.org/2000/svg">
<g clip-path="url(#clip0_4121_1594)">
<path d="M28 35.4C25.4344 35.404 22.9172 34.7194 20.71 33.4211L18.66 36.7011C21.4817 38.3838 24.7091 39.2717 27.9994 39.2666L28.0007 39.2666C31.291 39.2717 34.5184 38.3838 37.3401 36.7011L35.2901 33.4211C33.0828 34.7194 30.5657 35.404 28 35.4ZM28 35.4C27.9998 35.4 27.9996 35.4 27.9994 35.4L28 35L28.0007 35.4C28.0005 35.4 28.0003 35.4 28 35.4ZM46.1252 18.7167L46.1694 19.0666H46.522H49C50.1316 19.0666 51.2169 19.5162 52.017 20.3163C52.8172 21.1165 53.2667 22.2017 53.2667 23.3333V32.6666C53.2667 33.7982 52.8172 34.8835 52.017 35.6836C51.2169 36.4838 50.1316 36.9333 49 36.9333H46.522H46.1693L46.1252 37.2833C45.5685 41.6976 43.42 45.7571 40.0829 48.7C36.8459 51.5545 32.7063 53.1679 28.4 53.2623V49.3944C32.0741 49.2924 35.5763 47.7884 38.1824 45.1823C40.8829 42.4818 42.4 38.8191 42.4 35V21C42.4 17.1809 40.8829 13.5182 38.1824 10.8176C35.4819 8.11711 31.8192 6.59997 28 6.59997C24.1809 6.59997 20.5182 8.11711 17.8177 10.8176C15.1172 13.5182 13.6 17.1809 13.6 21V36.9333H7.00004C5.86845 36.9333 4.78321 36.4838 3.98305 35.6836L3.70021 35.9665L3.98305 35.6836C3.1829 34.8835 2.73337 33.7982 2.73337 32.6666V23.3333C2.73337 22.2017 3.1829 21.1165 3.98305 20.3163C4.78321 19.5162 5.86845 19.0666 7.00004 19.0666H9.47804H9.83072L9.87489 18.7167C10.4321 14.3028 12.5808 10.2439 15.9179 7.30158C19.255 4.35928 23.5511 2.73582 28 2.73582C32.449 2.73582 36.7451 4.35928 40.0822 7.30158C43.4193 10.2439 45.568 14.3028 46.1252 18.7167ZM7.00004 22.9333H6.60004V23.3333V32.6666V33.0666H7.00004H9.33337H9.73337V32.6666V23.3333V22.9333H9.33337H7.00004ZM46.6667 22.9333H46.2667V23.3333V32.6666V33.0666H46.6667H49H49.4V32.6666V23.3333V22.9333H49H46.6667ZM35.3958 32.8895C35.4039 32.8844 35.412 32.8794 35.42 32.8743L35.3958 32.8895ZM20.58 32.8743C20.5881 32.8794 20.5962 32.8844 20.6043 32.8895L20.368 33.2135L20.58 32.8743Z" fill="#0080C5" stroke="white" stroke-width="0.8"/>
</g>
<defs>
<clipPath id="clip0_4121_1594">
<rect width="56" height="56" fill="white"/>
</clipPath>
</defs>
</svg>
