<svg width="56" height="56" viewBox="0 0 56 56" fill="none" xmlns="http://www.w3.org/2000/svg">
<g clip-path="url(#clip0_4121_1590)">
<path d="M41.6 35V35.4H42H50.9333V44.3333C50.9333 46.0837 50.2379 47.7625 49.0002 49.0002C47.7625 50.2379 46.0837 50.9333 44.3333 50.9333H11.6666C9.9162 50.9333 8.23746 50.2379 6.99972 49.0002C5.76198 47.7625 5.06663 46.0837 5.06663 44.3333V6.99996C5.06663 6.48721 5.27032 5.99546 5.63289 5.63289C5.99546 5.27032 6.48721 5.06663 6.99996 5.06663H39.6666C40.1794 5.06663 40.6711 5.27032 41.0337 5.63289C41.3963 5.99546 41.6 6.48721 41.6 6.99996V35ZM42 39.2666H41.6V39.6666V44.3333C41.6 45.0582 41.8879 45.7535 42.4005 46.2661C42.9131 46.7787 43.6084 47.0666 44.3333 47.0666C45.0582 47.0666 45.7535 46.7787 46.2661 46.266C46.7787 45.7535 47.0666 45.0582 47.0666 44.3333V39.6666V39.2666H46.6666H42ZM37.3333 47.0666H37.7333V46.6666V9.33329V8.93329H37.3333H9.33329H8.93329V9.33329V44.3333C8.93329 45.0582 9.22127 45.7535 9.73387 46.2661C10.2465 46.7787 10.9417 47.0666 11.6666 47.0666H37.3333ZM14.4 16.7333H32.2666V20.6H14.4V16.7333ZM14.4 26.0666H32.2666V29.9333H14.4V26.0666ZM14.4 35.4H25.2666V39.2666H14.4V35.4Z" fill="#0080C5" stroke="white" stroke-width="0.8"/>
</g>
<defs>
<clipPath id="clip0_4121_1590">
<rect width="56" height="56" fill="white"/>
</clipPath>
</defs>
</svg>
