<svg width="56" height="56" viewBox="0 0 56 56" fill="none" xmlns="http://www.w3.org/2000/svg">
<g clip-path="url(#clip0_4121_1602)">
<path d="M13.6023 27.6H14.0023H14.0043H14.0046V28C14.0119 28 14.0192 28 14.0265 28L13.6023 27.6ZM13.6023 27.6L13.6023 27.9999L13.5999 39.7179L13.5999 39.9243L13.7681 40.0439L13.8731 40.1186L13.8751 40.12C18.1438 43.1165 23.6839 44.7333 30.3333 44.7333C37.4455 44.7333 44.0674 41.9962 48.8933 37.3171L48.8934 37.3172L48.8978 37.3128L49.2081 37.0025L49.5178 36.6928L49.1813 36.4123L48.9013 36.179L48.9014 36.1789L48.8919 36.1714C47.727 35.259 46.3149 34.7176 44.8387 34.6172L44.8387 34.617L44.8252 34.6165L44.3469 34.6002L44.3469 34.6H44.3333H39.4076H38.9083L39.0172 35.0872C39.1791 35.811 39.2666 36.561 39.2666 37.3333V39.2666M13.6023 27.6L39.2666 39.2666M39.2666 39.2666H19.0666V35.3999L34.51 35.3976L35.1206 35.3975L34.8766 34.8378L34.7973 34.6558L34.7975 34.6557L34.7914 34.643C34.3136 33.6445 33.5786 32.7912 32.6619 32.1708C31.7453 31.5503 30.68 31.1851 29.5755 31.1125L29.5755 31.1122L29.5614 31.1118L29.1788 31.1001L29.1788 31.1H29.1666H22.4966L39.2666 39.2666ZM13.5999 23.3333V23.7339L14.0005 23.7333C17.5763 23.728 21.0491 24.931 23.8553 27.1472L23.9644 27.2333H24.1033H29.1666C32.1583 27.2333 34.8445 28.5345 36.6946 30.6002L36.8139 30.7333H36.9926H44.3333H44.3334C46.4633 30.7327 48.5499 31.3359 50.351 32.473C52.0835 33.5667 53.4836 35.1114 54.4026 36.9392C48.9478 44.0124 40.2006 48.6 30.3333 48.6C23.8814 48.6 18.443 47.2058 14.0533 44.7812L13.6434 44.5547L13.4838 44.995C13.3487 45.3681 13.1017 45.6904 12.7766 45.918C12.4515 46.1456 12.0641 46.2673 11.6673 46.2666H11.6666H4.66659C4.15383 46.2666 3.66208 46.0629 3.29951 45.7004L3.01667 45.9832L3.29951 45.7004C2.93694 45.3378 2.73325 44.846 2.73325 44.3333V23.3333C2.73325 22.8205 2.93694 22.3288 3.29951 21.9662C3.66208 21.6036 4.15383 21.4 4.66659 21.4H11.6666C12.1793 21.4 12.6711 21.6036 13.0337 21.9662C13.3962 22.3288 13.5999 22.8205 13.5999 23.3333ZM9.73325 25.6666V25.2666H9.33325H6.99992H6.59992V25.6666V42V42.4H6.99992H9.33325H9.73325V42V25.6666ZM41.9999 12.0666C43.7503 12.0666 45.4291 12.762 46.6668 13.9997C47.9046 15.2375 48.5999 16.9162 48.5999 18.6666C48.5999 20.4171 47.9046 22.0958 46.6668 23.3335C45.4291 24.5713 43.7503 25.2666 41.9999 25.2666C40.2495 25.2666 38.5708 24.5713 37.333 23.3335C36.0953 22.0958 35.3999 20.4171 35.3999 18.6666C35.3999 16.9162 36.0953 15.2375 37.333 13.9997C38.5708 12.762 40.2495 12.0666 41.9999 12.0666ZM41.9999 15.9333C41.275 15.9333 40.5798 16.2213 40.0672 16.7339C39.5546 17.2465 39.2666 17.9417 39.2666 18.6666C39.2666 19.3916 39.5546 20.0868 40.0672 20.5994C40.5798 21.112 41.275 21.4 41.9999 21.4C42.7248 21.4 43.4201 21.112 43.9327 20.5994C44.4453 20.0868 44.7333 19.3916 44.7333 18.6666C44.7333 17.9417 44.4453 17.2465 43.9327 16.7339C43.4201 16.2213 42.7248 15.9333 41.9999 15.9333ZM25.6666 5.06663C27.417 5.06663 29.0957 5.76198 30.3335 6.99972C31.5712 8.23746 32.2666 9.9162 32.2666 11.6666C32.2666 13.4171 31.5712 15.0958 30.3335 16.3335C29.0957 17.5713 27.417 18.2666 25.6666 18.2666C23.9162 18.2666 22.2374 17.5713 20.9997 16.3335C19.7619 15.0958 19.0666 13.4171 19.0666 11.6666C19.0666 9.9162 19.7619 8.23746 20.9997 6.99972C22.2374 5.76198 23.9162 5.06663 25.6666 5.06663ZM25.6666 8.93329C24.9417 8.93329 24.2464 9.22127 23.7338 9.73387C23.2212 10.2465 22.9333 10.9417 22.9333 11.6666C22.9333 12.3916 23.2212 13.0868 23.7338 13.5994C24.2464 14.112 24.9417 14.4 25.6666 14.4C26.3915 14.4 27.0867 14.112 27.5993 13.5994C28.1119 13.0868 28.3999 12.3916 28.3999 11.6666C28.3999 10.9417 28.1119 10.2465 27.5993 9.73387C27.0867 9.22127 26.3915 8.93329 25.6666 8.93329Z" fill="#0080C5" stroke="white" stroke-width="0.8"/>
</g>
<defs>
<clipPath id="clip0_4121_1602">
<rect width="56" height="56" fill="white"/>
</clipPath>
</defs>
</svg>
