<svg width="56" height="56" viewBox="0 0 56 56" fill="none" xmlns="http://www.w3.org/2000/svg">
<g clip-path="url(#clip0_4121_1586)">
<path d="M34.6001 18.6667V22.9334H12.0667V14.4H43.9334V22.9334H40.0667V18.6667V18.2667H39.6667H35.0001H34.6001V18.6667ZM14.0001 7.40004H14.4001V7.00004V2.73337H18.2667V7.00004V7.40004H18.6667H49.0187C50.076 7.40004 50.9334 8.25876 50.9334 9.31704V46.6818C50.9295 47.189 50.7264 47.6743 50.3679 48.0332C50.0095 48.392 49.5244 48.5955 49.0174 48.6H6.98182C6.47373 48.5995 5.98663 48.3973 5.62754 48.0379C5.26845 47.6784 5.06675 47.1911 5.06675 46.683V9.3185C5.07063 8.81125 5.27373 8.32582 5.63226 7.96692C5.99075 7.60807 6.47589 7.40449 6.98307 7.40004H14.0001ZM9.33341 11.2667H8.93341V11.6667V44.3334V44.7334H9.33341H46.6667H47.0667V44.3334V11.6667V11.2667H46.6667H9.33341ZM18.6667 41.6C16.9163 41.6 15.2376 40.9047 13.9998 39.667C12.7621 38.4292 12.0667 36.7505 12.0667 35C12.0667 33.2496 12.7621 31.5709 13.9998 30.3331C15.2376 29.0954 16.9163 28.4 18.6667 28.4C20.4172 28.4 22.0959 29.0954 23.3337 30.3331C24.5714 31.5709 25.2667 33.2496 25.2667 35C25.2667 36.7505 24.5714 38.4292 23.3337 39.6669C22.0959 40.9047 20.4172 41.6 18.6667 41.6Z" fill="#0080C5" stroke="white" stroke-width="0.8"/>
</g>
<defs>
<clipPath id="clip0_4121_1586">
<rect width="56" height="56" fill="white"/>
</clipPath>
</defs>
</svg>
