<svg width="56" height="56" viewBox="0 0 56 56" fill="none" xmlns="http://www.w3.org/2000/svg">
<g clip-path="url(#clip0_4121_1598)">
<path d="M42.1862 49.8127L42.0001 49.7148L41.8139 49.8127L35.6736 53.0406L36.8456 46.2046L36.8811 45.9974L36.7306 45.8507L31.7643 41.0076L38.63 40.0089L38.838 39.9786L38.9311 39.79L42.0002 33.5704L45.0714 39.7901L45.1644 39.9786L45.3724 40.0089L52.2358 41.0076L47.2694 45.8507L47.119 45.9974L47.1544 46.2045L48.3244 53.0406L42.1862 49.8127ZM9.73775 50.9334C9.84057 46.2336 11.7523 41.7482 15.0836 38.4169C18.4148 35.0856 22.9003 33.1739 27.6 33.0711V36.9389C23.926 37.0409 20.4238 38.5449 17.8177 41.151C15.2116 43.7571 13.7076 47.2593 13.6056 50.9334H9.73775ZM28 29.9334C20.486 29.9334 14.4 23.8475 14.4 16.3334C14.4 8.81929 20.486 2.73337 28 2.73337C35.5141 2.73337 41.6 8.81929 41.6 16.3334C41.6 23.8475 35.5141 29.9334 28 29.9334ZM28 26.0667C33.3776 26.0667 37.7334 21.711 37.7334 16.3334C37.7334 10.9558 33.3776 6.60004 28 6.60004C22.6225 6.60004 18.2667 10.9558 18.2667 16.3334C18.2667 21.711 22.6225 26.0667 28 26.0667Z" fill="#0080C5" stroke="white" stroke-width="0.8"/>
</g>
<defs>
<clipPath id="clip0_4121_1598">
<rect width="56" height="56" fill="white"/>
</clipPath>
</defs>
</svg>
