<svg width="17" height="17" viewBox="0 0 17 17" fill="none" xmlns="http://www.w3.org/2000/svg">
<g clip-path="url(#clip0_4720_2030)">
<path d="M0.00012207 17L1.20165 12.6369C0.458813 11.3562 0.0691287 9.9059 0.0731879 8.42324C0.0731879 3.77733 3.87261 0 8.53665 0C10.8017 0 12.9287 0.876664 14.524 2.46839C16.1233 4.06012 17.0042 6.17705 17.0001 8.42728C17.0001 13.0732 13.2007 16.8505 8.53259 16.8505H8.52853C7.11186 16.8505 5.71955 16.495 4.48149 15.8244L0.00012207 17ZM4.69663 14.3013L4.95236 14.4549C6.03211 15.0932 7.27017 15.4285 8.53259 15.4325H8.53665C12.4132 15.4325 15.5713 12.2935 15.5713 8.43132C15.5713 6.56084 14.8406 4.80347 13.5132 3.47838C12.1859 2.15328 10.4161 1.42609 8.53665 1.42609C4.6601 1.42205 1.50203 4.56108 1.50203 8.42324C1.50203 9.7443 1.87142 11.033 2.57772 12.1481L2.74415 12.4147L2.03379 14.9962L4.69663 14.3013Z" fill="white"/>
<path d="M0.296387 16.7051L1.45732 12.4915C0.738841 11.2593 0.361334 9.85743 0.361334 8.42729C0.365393 3.94297 4.03086 0.294922 8.53659 0.294922C10.7245 0.294922 12.7744 1.14331 14.3169 2.67848C15.8594 4.21365 16.7078 6.25785 16.7078 8.43133C16.7078 12.9156 13.0383 16.5637 8.53659 16.5637H8.53253C7.16458 16.5637 5.82098 16.2203 4.62757 15.5739L0.296387 16.7051Z" fill="url(#paint0_linear_4720_2030)"/>
<path d="M0.00012207 17L1.20165 12.6369C0.458813 11.3562 0.0691287 9.9059 0.0731879 8.42324C0.0731879 3.77733 3.87261 0 8.53665 0C10.8017 0 12.9287 0.876664 14.524 2.46839C16.1233 4.06012 17.0042 6.17705 17.0001 8.42728C17.0001 13.0732 13.2007 16.8505 8.53259 16.8505H8.52853C7.11186 16.8505 5.71955 16.495 4.48149 15.8244L0.00012207 17ZM4.69663 14.3013L4.95236 14.4549C6.03211 15.0932 7.27017 15.4285 8.53259 15.4325H8.53665C12.4132 15.4325 15.5713 12.2935 15.5713 8.43132C15.5713 6.56084 14.8406 4.80347 13.5132 3.47838C12.1859 2.15328 10.4161 1.42609 8.53665 1.42609C4.6601 1.42205 1.50203 4.56108 1.50203 8.42324C1.50203 9.7443 1.87142 11.033 2.57772 12.1481L2.74415 12.4147L2.03379 14.9962L4.69663 14.3013Z" fill="url(#paint1_linear_4720_2030)"/>
<path fill-rule="evenodd" clip-rule="evenodd" d="M6.42165 4.90035C6.26334 4.54887 6.09691 4.54079 5.94672 4.53676C5.82495 4.53272 5.68287 4.53271 5.5408 4.53271C5.39873 4.53271 5.17141 4.58523 4.97657 4.79531C4.78173 5.00539 4.23779 5.51442 4.23779 6.55268C4.23779 7.5869 4.99687 8.5888 5.10241 8.7302C5.20794 8.87159 6.56778 11.0653 8.71511 11.9096C10.5012 12.6126 10.8665 12.4712 11.2521 12.4348C11.6377 12.3984 12.5024 11.9258 12.681 11.4329C12.8555 10.94 12.8555 10.5199 12.8027 10.431C12.75 10.3421 12.6079 10.2896 12.3968 10.1846C12.1857 10.0795 11.1466 9.5705 10.9517 9.49778C10.7569 9.4291 10.6148 9.39274 10.4768 9.60282C10.3347 9.8129 9.92881 10.2856 9.80703 10.427C9.68526 10.5684 9.55942 10.5845 9.34834 10.4795C9.13726 10.3744 8.45532 10.1523 7.64753 9.43314C7.01835 8.87563 6.59214 8.18481 6.47036 7.97473C6.34858 7.76465 6.45818 7.65154 6.56372 7.5465C6.65708 7.45358 6.7748 7.30006 6.88034 7.17887C6.98588 7.05767 7.02241 6.96879 7.09142 6.82739C7.16043 6.68599 7.12795 6.5648 7.07518 6.45976C7.02241 6.35876 6.60837 5.31646 6.42165 4.90035Z" fill="white"/>
</g>
<defs>
<linearGradient id="paint0_linear_4720_2030" x1="8.50166" y1="16.7043" x2="8.50166" y2="0.294348" gradientUnits="userSpaceOnUse">
<stop stop-color="#20B038"/>
<stop offset="1" stop-color="#60D66A"/>
</linearGradient>
<linearGradient id="paint1_linear_4720_2030" x1="8.50178" y1="16.9984" x2="8.50178" y2="0" gradientUnits="userSpaceOnUse">
<stop stop-color="#F9F9F9"/>
<stop offset="1" stop-color="white"/>
</linearGradient>
<clipPath id="clip0_4720_2030">
<rect width="17" height="17" fill="white"/>
</clipPath>
</defs>
</svg>
